<?xml version="1.0" encoding="UTF-8"?>
<svg version="1.1" xmlns="http://www.w3.org/2000/svg" width="512" height="512">
<path d="M0 0 C1.21648566 -0.00644889 2.43297132 -0.01289778 3.68632019 -0.0195421 C5.03814477 -0.01659975 6.38996894 -0.01346431 7.74179268 -0.01015663 C9.17640171 -0.01389226 10.6110087 -0.01849343 12.04561245 -0.02388728 C15.99276234 -0.03614351 19.93982763 -0.03585374 23.88699222 -0.03349853 C28.14203183 -0.03309102 32.39704408 -0.04412311 36.652071 -0.05361366 C44.9901953 -0.07023881 53.32829133 -0.07572388 61.66643082 -0.07683842 C68.44260458 -0.07778814 75.218769 -0.08189462 81.9949398 -0.08823967 C101.19837786 -0.1058559 120.40179354 -0.1150779 139.60523973 -0.11357872 C141.1586945 -0.11345885 141.1586945 -0.11345885 142.74353218 -0.11333656 C143.78043025 -0.1132548 144.81732832 -0.11317304 145.88564755 -0.1130888 C162.69434714 -0.1122757 179.50295716 -0.13141835 196.31163083 -0.1596133 C213.56256214 -0.18832222 230.81344974 -0.2021547 248.06440556 -0.20042574 C257.75278322 -0.19976117 267.44106697 -0.20528288 277.12942314 -0.22678185 C285.37760896 -0.24496743 293.6256583 -0.24936259 301.87385546 -0.235763 C306.08322601 -0.22922015 310.29233454 -0.22916338 314.50168037 -0.2464695 C318.35457615 -0.26214741 322.207001 -0.25939121 326.05988492 -0.24190123 C327.4542122 -0.23881963 328.84857416 -0.24250732 330.24286054 -0.25362138 C343.40447913 -0.351592 343.40447913 -0.351592 348.08972359 4.25726891 C350.87136499 7.79269985 350.19668426 11.78221613 349.89294624 16.0454464 C349.84156816 16.86802102 349.79019009 17.69059565 349.7372551 18.53809679 C348.89575273 31.17283733 347.64661547 43.77907733 346.45202732 56.384341 C346.08381423 60.2789737 345.72015475 64.17403214 345.3558979 68.06903648 C344.64432194 75.67046637 343.92868021 83.27150806 343.21164846 90.87242503 C342.37562671 99.73660595 341.54391121 108.60118938 340.71239638 117.46579401 C339.22863709 133.28248229 337.74131905 149.09883382 336.25183296 164.91498375 C334.80820929 180.24420301 333.36665605 195.57361491 331.92761421 210.903265 C331.83883247 211.84902321 331.75005073 212.79478142 331.65857863 213.76919897 C331.3016599 217.57137431 330.94474696 221.37355019 330.58784378 225.17572699 C329.0475348 241.58445418 327.50552471 257.99302157 325.96329021 274.40156788 C325.71418328 277.05208034 325.46511618 279.70259654 325.21605873 282.35311365 C324.34439807 291.62909981 323.47222014 300.90503691 322.59861803 310.18084045 C322.23762328 314.01385748 321.87685117 317.84689507 321.51673317 321.67999458 C321.12605489 325.83820759 320.73417412 329.99630639 320.34216499 334.15439415 C320.22903151 335.36032176 320.11589802 336.56624936 319.99933624 337.80872023 C319.70178679 340.95881233 319.39614918 344.1080309 319.08972359 347.25726891 C319.0099919 348.14450437 318.93026021 349.03173983 318.8481124 349.94586122 C318.34545115 355.1501571 317.65262574 358.29648472 314.08972359 362.25726891 C311.11714363 363.84287071 311.11714363 363.84287071 307.47180367 365.07611656 C306.78302793 365.31552279 306.09425219 365.55492901 305.38460445 365.80158997 C303.82468301 366.34025804 302.26131888 366.8690232 300.6952877 367.38966179 C297.89800551 368.32110766 295.1115891 369.28111022 292.32541084 370.24524498 C285.55301212 372.58031483 278.76603339 374.87118212 271.97644234 377.15570641 C270.74713305 377.56944134 269.51782375 377.98317627 268.25126266 378.40944862 C263.08651615 380.14695185 257.92116584 381.88264222 252.75429249 383.61381149 C245.41446536 386.07316971 238.07860354 388.54367961 230.74763077 391.02931154 C224.92285786 393.00309792 219.09209653 394.95862672 213.25910568 396.90798378 C210.79617026 397.73403897 208.33510981 398.56570753 205.87604523 399.40321541 C202.4388574 400.57250554 198.99527223 401.72068009 195.54944038 402.8642025 C194.04749123 403.38305519 194.04749123 403.38305519 192.51519966 403.91238976 C180.25619679 407.92134749 170.62000869 406.0182654 158.44201851 402.46527672 C157.0022172 402.05676615 155.56206135 401.64950349 154.12158394 401.24338341 C150.23994923 400.1449392 146.3637157 399.0284887 142.48840308 397.90797329 C138.41928523 396.73415801 134.34591496 395.57527204 130.27314949 394.41419029 C123.4405943 392.46382323 116.61146231 390.50182786 109.78430367 388.53265953 C101.90127382 386.25908514 94.01329154 384.00341213 86.12238234 381.75735021 C78.51255381 379.59090844 70.90620214 377.41250081 63.3014183 375.22842216 C60.07257946 374.30129029 56.84262047 373.37822173 53.61168671 372.45841789 C49.80766936 371.37482892 46.00682803 370.2807318 42.20815468 369.17856026 C40.81685511 368.77666775 39.42452534 368.37832143 38.03110123 367.98385811 C36.12390268 367.44329348 34.22079889 366.88834447 32.31791878 366.33276939 C30.7216026 365.87371649 30.7216026 365.87371649 29.09303761 365.40538979 C24.98821169 363.83617781 21.33484735 362.02914831 18.76099014 358.36640835 C17.92237897 355.73146714 17.6069731 353.26664557 17.34945869 350.51103783 C17.23524071 349.33104934 17.12102272 348.15106085 17.00334358 346.93531513 C16.88602379 345.63769025 16.76870399 344.34006536 16.64782906 343.00311852 C16.51622783 341.61145718 16.38391921 340.21986259 16.25096321 338.82833004 C15.88725894 335.00011416 15.53361394 331.1710249 15.18156004 327.34172249 C14.80011253 323.2120694 14.40933814 319.08329797 14.01968575 314.95441246 C13.25730035 306.86040506 12.50340656 298.76562807 11.7522918 290.67056787 C10.8770324 281.24126586 9.99330794 271.81276334 9.10897207 262.38430893 C7.6245684 246.55644382 6.14576273 230.72806241 4.67048502 214.89934433 C2.57099247 192.37504707 0.45348414 169.8524802 -1.67159688 147.33058399 C-2.88256179 134.49586097 -4.09049262 121.66085232 -5.29801178 108.82580471 C-5.47815154 106.91112369 -5.65829361 104.99644289 -5.83843803 103.08176231 C-5.92708087 102.13958278 -6.0157237 101.19740325 -6.10705268 100.22667283 C-6.73176947 93.58799265 -7.35793496 86.94944998 -7.9845562 80.31094933 C-8.74866344 72.21506306 -9.50999869 64.11892142 -10.26791036 56.02245271 C-10.65479164 51.89026228 -11.04287197 47.75819395 -11.4342289 43.62642479 C-11.79273239 39.84119848 -12.14777925 36.05566427 -12.50009894 32.26985753 C-12.68849706 30.25502599 -12.88054816 28.24053706 -13.07273865 26.22606373 C-14.60985694 9.60645992 -14.60985694 9.60645992 -12.16027641 4.88226891 C-8.45214283 0.55611306 -5.60712425 0.00750648 0 0 Z " fill="#FD5622" transform="translate(87.91027641296387,105.74273109436035)"/>
<path d="M0 0 C1.21648566 -0.00644889 2.43297132 -0.01289778 3.68632019 -0.0195421 C5.03814477 -0.01659975 6.38996894 -0.01346431 7.74179268 -0.01015663 C9.17640171 -0.01389226 10.6110087 -0.01849343 12.04561245 -0.02388728 C15.99276234 -0.03614351 19.93982763 -0.03585374 23.88699222 -0.03349853 C28.14203183 -0.03309102 32.39704408 -0.04412311 36.652071 -0.05361366 C44.9901953 -0.07023881 53.32829133 -0.07572388 61.66643082 -0.07683842 C68.44260458 -0.07778814 75.218769 -0.08189462 81.9949398 -0.08823967 C101.19837786 -0.1058559 120.40179354 -0.1150779 139.60523973 -0.11357872 C141.1586945 -0.11345885 141.1586945 -0.11345885 142.74353218 -0.11333656 C143.78043025 -0.1132548 144.81732832 -0.11317304 145.88564755 -0.1130888 C162.69434714 -0.1122757 179.50295716 -0.13141835 196.31163083 -0.1596133 C213.56256214 -0.18832222 230.81344974 -0.2021547 248.06440556 -0.20042574 C257.75278322 -0.19976117 267.44106697 -0.20528288 277.12942314 -0.22678185 C285.37760896 -0.24496743 293.6256583 -0.24936259 301.87385546 -0.235763 C306.08322601 -0.22922015 310.29233454 -0.22916338 314.50168037 -0.2464695 C318.35457615 -0.26214741 322.207001 -0.25939121 326.05988492 -0.24190123 C327.4542122 -0.23881963 328.84857416 -0.24250732 330.24286054 -0.25362138 C343.40447913 -0.351592 343.40447913 -0.351592 348.08972359 4.25726891 C350.87136499 7.79269985 350.19668426 11.78221613 349.89294624 16.0454464 C349.84156816 16.86802102 349.79019009 17.69059565 349.7372551 18.53809679 C348.89575273 31.17283733 347.64661547 43.77907733 346.45202732 56.384341 C346.08381423 60.2789737 345.72015475 64.17403214 345.3558979 68.06903648 C344.64432194 75.67046637 343.92868021 83.27150806 343.21164846 90.87242503 C342.37562671 99.73660595 341.54391121 108.60118938 340.71239638 117.46579401 C339.22863709 133.28248229 337.74131905 149.09883382 336.25183296 164.91498375 C334.80820929 180.24420301 333.36665605 195.57361491 331.92761421 210.903265 C331.83883247 211.84902321 331.75005073 212.79478142 331.65857863 213.76919897 C331.3016599 217.57137431 330.94474696 221.37355019 330.58784378 225.17572699 C329.0475348 241.58445418 327.50552471 257.99302157 325.96329021 274.40156788 C325.71418328 277.05208034 325.46511618 279.70259654 325.21605873 282.35311365 C324.34439807 291.62909981 323.47222014 300.90503691 322.59861803 310.18084045 C322.23762328 314.01385748 321.87685117 317.84689507 321.51673317 321.67999458 C321.12605489 325.83820759 320.73417412 329.99630639 320.34216499 334.15439415 C320.22903151 335.36032176 320.11589802 336.56624936 319.99933624 337.80872023 C319.70178679 340.95881233 319.39614918 344.1080309 319.08972359 347.25726891 C319.0099919 348.14450437 318.93026021 349.03173983 318.8481124 349.94586122 C318.34545115 355.1501571 317.65262574 358.29648472 314.08972359 362.25726891 C311.11714363 363.84287071 311.11714363 363.84287071 307.47180367 365.07611656 C306.78302793 365.31552279 306.09425219 365.55492901 305.38460445 365.80158997 C303.82468301 366.34025804 302.26131888 366.8690232 300.6952877 367.38966179 C297.89800551 368.32110766 295.1115891 369.28111022 292.32541084 370.24524498 C285.55301212 372.58031483 278.76603339 374.87118212 271.97644234 377.15570641 C270.74713305 377.56944134 269.51782375 377.98317627 268.25126266 378.40944862 C263.08651615 380.14695185 257.92116584 381.88264222 252.75429249 383.61381149 C245.41446536 386.07316971 238.07860354 388.54367961 230.74763077 391.02931154 C224.92285786 393.00309792 219.09209653 394.95862672 213.25910568 396.90798378 C210.79617026 397.73403897 208.33510981 398.56570753 205.87604523 399.40321541 C202.4388574 400.57250554 198.99527223 401.72068009 195.54944038 402.8642025 C194.04749123 403.38305519 194.04749123 403.38305519 192.51519966 403.91238976 C180.25619679 407.92134749 170.62000869 406.0182654 158.44201851 402.46527672 C157.0022172 402.05676615 155.56206135 401.64950349 154.12158394 401.24338341 C150.23994923 400.1449392 146.3637157 399.0284887 142.48840308 397.90797329 C138.41928523 396.73415801 134.34591496 395.57527204 130.27314949 394.41419029 C123.4405943 392.46382323 116.61146231 390.50182786 109.78430367 388.53265953 C101.90127382 386.25908514 94.01329154 384.00341213 86.12238234 381.75735021 C78.51255381 379.59090844 70.90620214 377.41250081 63.3014183 375.22842216 C60.07257946 374.30129029 56.84262047 373.37822173 53.61168671 372.45841789 C49.80766936 371.37482892 46.00682803 370.2807318 42.20815468 369.17856026 C40.81685511 368.77666775 39.42452534 368.37832143 38.03110123 367.98385811 C36.12390268 367.44329348 34.22079889 366.88834447 32.31791878 366.33276939 C30.7216026 365.87371649 30.7216026 365.87371649 29.09303761 365.40538979 C24.98821169 363.83617781 21.33484735 362.02914831 18.76099014 358.36640835 C17.92237897 355.73146714 17.6069731 353.26664557 17.34945869 350.51103783 C17.23524071 349.33104934 17.12102272 348.15106085 17.00334358 346.93531513 C16.88602379 345.63769025 16.76870399 344.34006536 16.64782906 343.00311852 C16.51622783 341.61145718 16.38391921 340.21986259 16.25096321 338.82833004 C15.88725894 335.00011416 15.53361394 331.1710249 15.18156004 327.34172249 C14.80011253 323.2120694 14.40933814 319.08329797 14.01968575 314.95441246 C13.25730035 306.86040506 12.50340656 298.76562807 11.7522918 290.67056787 C10.8770324 281.24126586 9.99330794 271.81276334 9.10897207 262.38430893 C7.6245684 246.55644382 6.14576273 230.72806241 4.67048502 214.89934433 C2.57099247 192.37504707 0.45348414 169.8524802 -1.67159688 147.33058399 C-2.88256179 134.49586097 -4.09049262 121.66085232 -5.29801178 108.82580471 C-5.47815154 106.91112369 -5.65829361 104.99644289 -5.83843803 103.08176231 C-5.92708087 102.13958278 -6.0157237 101.19740325 -6.10705268 100.22667283 C-6.73176947 93.58799265 -7.35793496 86.94944998 -7.9845562 80.31094933 C-8.74866344 72.21506306 -9.50999869 64.11892142 -10.26791036 56.02245271 C-10.65479164 51.89026228 -11.04287197 47.75819395 -11.4342289 43.62642479 C-11.79273239 39.84119848 -12.14777925 36.05566427 -12.50009894 32.26985753 C-12.68849706 30.25502599 -12.88054816 28.24053706 -13.07273865 26.22606373 C-14.60985694 9.60645992 -14.60985694 9.60645992 -12.16027641 4.88226891 C-8.45214283 0.55611306 -5.60712425 0.00750648 0 0 Z M9.08972359 22.25726891 C10.61203528 42.41510158 10.61203528 42.41510158 12.38659859 62.54633141 C12.50053963 63.75509941 12.61448067 64.96386742 12.73187447 66.20926476 C13.09910719 70.10046322 13.46941135 73.99136243 13.83972359 77.88226891 C14.10455512 80.68039802 14.36864791 83.47859667 14.63269234 86.27680016 C15.11066486 91.34010488 15.589326 96.40334348 16.06893349 101.46649361 C17.29476798 114.40864522 18.50700507 127.35206018 19.71875191 140.29553795 C20.27931992 146.28203171 20.8406474 152.26845421 21.40197182 158.25487709 C21.71459209 161.58900429 22.02715497 164.92313687 22.33972359 168.25726891 C22.46472331 169.59060226 22.58972331 170.9239356 22.71472359 172.25726891 C23.46472358 180.25726888 23.46472358 180.25726888 23.65222549 182.25729179 C23.77721851 183.59054889 23.90221215 184.92380593 24.02720642 186.25706291 C24.33981851 189.59156215 24.65241962 192.92606242 24.96499825 196.2605648 C25.58819954 202.90857747 26.21158457 209.5565728 26.83532906 216.20453453 C28.04806187 229.13201836 29.25845175 242.0597117 30.46310234 254.98795128 C31.04619695 261.24446322 31.63016818 267.50089329 32.21472359 273.75726891 C32.30877857 274.76394615 32.30877857 274.76394615 32.40473366 275.79096031 C34.53874223 298.62273834 36.75400597 321.44523328 39.08972359 344.25726891 C43.25002598 346.1067218 47.23254594 347.69904009 51.65222359 348.83539391 C52.68419868 349.1054525 53.71617378 349.37551109 54.77942085 349.65375328 C55.87182076 349.93541344 56.96422066 350.21707359 58.08972359 350.50726891 C67.56246754 353.00055093 76.94838222 355.67567772 86.30252266 358.58020592 C93.00045223 360.64885403 99.72732294 362.57911857 106.48425484 364.44476891 C115.85647238 367.04922904 125.20136237 369.73683305 134.53503609 372.47601891 C138.19538165 373.54377957 141.85611727 374.61019272 145.51696968 375.67621422 C148.01568969 376.40672605 150.51305827 377.14187403 153.00915718 377.88129234 C156.68080908 378.96746762 160.35724119 380.03585847 164.03503609 381.10101891 C165.14541237 381.43420128 166.25578865 381.76738365 167.3998127 382.11066246 C168.4397538 382.40847618 169.4796949 382.7062899 170.55114937 383.01312828 C171.45503395 383.27847374 172.35891853 383.5438192 173.29019356 383.81720543 C180.5915181 384.96491459 187.5298566 381.95999987 194.34924507 379.65546227 C195.4621743 379.28468056 196.57510353 378.91389885 197.72175789 378.53188133 C201.38670363 377.30930653 205.04874476 376.07826416 208.71081734 374.84711266 C211.25654751 373.99604824 213.80243099 373.14545725 216.34852791 372.29549217 C222.35646153 370.28871243 228.36233044 368.27582645 234.36747271 366.26071125 C241.20751074 363.96576762 248.04983628 361.67768217 254.89235771 359.39015567 C268.96069542 354.68679324 283.02615449 349.97487185 297.08972359 345.25726891 C298.11462723 334.69516088 299.13499224 324.13261841 300.15222359 313.56976891 C300.23040321 312.75803844 300.30858284 311.94630798 300.38913155 311.10997963 C302.79587022 286.10930716 305.12203523 261.10240766 307.3743 236.08736992 C309.90658945 207.96250916 312.55351065 179.85130811 315.30872345 151.74743176 C315.66950717 148.06713565 316.03010157 144.38682104 316.39050484 140.70648766 C316.49663912 139.62292645 316.49663912 139.62292645 316.60491753 138.51747513 C318.22805049 121.93495086 319.79058938 105.34684944 321.33972359 88.75726891 C321.45864967 87.48378593 321.57757576 86.21030296 321.70010567 84.8982296 C322.15441947 80.03026373 322.60866977 75.16229369 323.06041145 70.29408836 C323.6042734 64.4371193 324.15282344 58.5806601 324.71318626 52.72524834 C324.99540663 49.77519675 325.27597675 46.82498901 325.55651283 43.87477684 C325.69187356 42.45655334 325.82807144 41.03840946 325.96515846 39.62035179 C326.15559907 37.64991748 326.34293918 35.67918426 326.53015327 33.70844078 C326.63833382 32.58175987 326.74651436 31.45507896 326.8579731 30.29425621 C327.06189759 27.62191628 327.08972359 24.93737822 327.08972359 22.25726891 C222.14972359 22.25726891 117.20972359 22.25726891 9.08972359 22.25726891 Z " fill="#050100" transform="translate(87.91027641296387,105.74273109436035)"/>
<path d="M0 0 C0.84433078 -0.00297112 1.68866157 -0.00594224 2.55857813 -0.0090034 C5.39824375 -0.01770063 8.23786727 -0.01919951 11.07754517 -0.02069092 C13.10925894 -0.02531832 15.14097183 -0.03034287 17.17268372 -0.03573608 C22.6995247 -0.04886848 28.22635353 -0.05530653 33.75320768 -0.05974674 C37.20413216 -0.06267575 40.6550533 -0.0667802 44.1059761 -0.07125092 C54.897356 -0.08492725 65.68872829 -0.09459358 76.48011625 -0.09845281 C88.94819573 -0.10293586 101.41616572 -0.12049469 113.8842119 -0.1494534 C123.51484636 -0.17104755 133.14544996 -0.18115585 142.77610838 -0.18249393 C148.53139872 -0.18354346 154.28658614 -0.18948295 160.04185104 -0.20731354 C165.4541571 -0.22375531 170.86628243 -0.22596867 176.27860451 -0.21717453 C178.26640747 -0.2164021 180.25422 -0.22077387 182.24199867 -0.23063278 C184.95313469 -0.24329214 187.6636248 -0.23750833 190.37475586 -0.22705078 C191.55797946 -0.23913539 191.55797946 -0.23913539 192.76510656 -0.25146413 C198.38671336 -0.20065895 201.61540801 1.01731432 205.62686157 4.89044189 C207.34304483 8.14215754 207.19598245 10.51504352 206.81436157 14.14044189 C205.59963015 16.87358759 204.65992937 18.55460949 202.19536209 20.26212883 C198.80826205 21.51157594 195.52958924 21.40886648 191.96835327 21.38095093 C190.77491299 21.3835142 190.77491299 21.3835142 189.55736279 21.38612926 C186.88870595 21.38942613 184.22029998 21.37841724 181.55166626 21.36749268 C179.63977057 21.3669286 177.72787444 21.36724504 175.815979 21.36837769 C170.6221288 21.36895236 165.42837067 21.35717949 160.23454189 21.34322977 C154.80796714 21.33074151 149.38139037 21.32955342 143.95480347 21.32717896 C133.67720258 21.32095859 123.39964415 21.30454022 113.12206197 21.28447998 C101.42207683 21.26213831 89.72208968 21.2511319 78.02208853 21.24108911 C53.95282265 21.22017449 29.88359449 21.18498768 5.81436157 21.14044189 C5.95011597 22.1198877 6.08587036 23.0993335 6.22573853 24.10845947 C9.03560063 44.42650109 11.69941896 64.73638155 13.81436157 85.14044189 C14.65404291 85.13675472 15.49372425 85.13306755 16.35885048 85.12926865 C36.78996862 85.040932 57.22105385 84.97473926 77.65232277 84.93319321 C87.5327401 84.91256782 97.41302996 84.88444763 107.29336548 84.83868408 C115.90505317 84.79881564 124.51664854 84.77300891 133.12842596 84.76408792 C137.68835018 84.75887318 142.2480103 84.74661715 146.80784988 84.71752167 C151.10062446 84.69035244 155.39302636 84.68199992 159.68587875 84.68801117 C161.26046016 84.6869116 162.83505415 84.67896651 164.40956116 84.66362 C166.56241641 84.64366736 168.71387145 84.64852044 170.86676025 84.65942383 C172.07062189 84.65573666 173.27448353 84.65204948 174.51482582 84.64825058 C178.50612314 85.24363188 180.67449521 86.6533853 183.81436157 89.14044189 C186.87747171 93.72639157 185.69451142 99.00424502 185.16201782 104.22637939 C185.065746 105.26418549 184.96947418 106.30199158 184.87028503 107.37124634 C184.53229009 110.96246493 184.17423618 114.55135226 183.81436157 118.14044189 C183.6813956 119.49282185 183.54881672 120.84523991 183.41659546 122.19769287 C182.38692218 132.72284892 181.3225972 143.24439581 180.25186157 153.76544189 C179.69804067 159.20806764 179.1456695 164.65083363 178.59663582 170.09394455 C178.38063937 172.22856552 178.16220928 174.36292731 177.94361877 176.49728394 C177.17739189 184.05279835 176.53868412 191.60183389 176.08207703 199.18301392 C175.68696533 203.5477765 175.0139875 206.30883544 172.81436157 210.14044189 C166.03380797 214.10525184 158.64574337 216.417222 151.22451782 218.90606689 C149.91225574 219.34863088 148.60003626 219.79132122 147.28785706 220.23413086 C144.55016033 221.15613171 141.81083293 222.07309256 139.07046509 222.98712158 C135.57838277 224.15287893 132.09264449 225.33650028 128.60813236 226.52466202 C125.90441291 227.44331215 123.19665813 228.34957765 120.48766899 229.25255585 C118.58121983 229.89125825 116.67893554 230.54234986 114.77677917 231.19372559 C101.61831183 235.53421438 92.83216826 233.66807168 79.86904907 229.87091064 C78.32952496 229.428784 76.7897351 228.98758181 75.24969482 228.54725647 C72.03521287 227.62554691 68.82311951 226.69607934 65.61270142 225.76031494 C61.51287166 224.56547309 57.40906288 223.3850885 53.3035717 222.20986462 C50.12816727 221.30010569 46.95423761 220.3852939 43.78079605 219.46871376 C42.26850613 219.03203679 40.75594438 218.59629997 39.24309921 218.16155052 C37.12466738 217.55138606 35.00811871 216.93508204 32.89199829 216.31695557 C31.69114594 215.96831955 30.49029358 215.61968353 29.25305176 215.26048279 C19.77793156 212.17427219 19.77793156 212.17427219 16.56436157 208.72637939 C14.05634522 203.58718517 12.98605234 198.34114259 11.81436157 192.76544189 C11.30271452 190.42790119 10.78969565 188.09066033 10.27529907 185.75372314 C10.02876587 184.62144287 9.78223267 183.4891626 9.52822876 182.3225708 C8.32926592 176.97808323 6.91198822 171.69551251 5.47842407 166.40997314 C4.62959031 162.23071517 3.79712535 158.08949757 5.83779907 154.17950439 C10.53915534 149.26074437 10.53915534 149.26074437 15.12686157 148.82794189 C19.51133033 149.19950704 20.71038198 150.10752411 23.81436157 153.14044189 C25.04580688 155.85406494 25.04580688 155.85406494 25.89248657 158.96466064 C26.2128186 160.11627686 26.53315063 161.26789307 26.8631897 162.45440674 C27.17707642 163.67079834 27.49096313 164.88718994 27.81436157 166.14044189 C28.13340454 167.35554443 28.45244751 168.57064697 28.78115845 169.8225708 C29.73415746 173.52689161 30.65460605 177.23778146 31.56436157 180.95294189 C31.88018188 182.2297583 32.1960022 183.50657471 32.52139282 184.82208252 C33.28900145 187.92740832 34.05327155 191.03351327 34.81436157 194.14044189 C42.92064377 196.51949037 51.03074167 198.88485233 59.14602852 201.23297977 C62.91441065 202.32380845 66.68131963 203.41925171 70.44522095 204.52545166 C74.07954481 205.59338172 77.71726268 206.64891285 81.35763168 207.69604301 C82.74392765 208.09713195 84.12895686 208.50262696 85.51263809 208.91264534 C87.45499025 209.48738448 89.40242649 210.04485554 91.3500061 210.60162354 C92.45587067 210.92361221 93.56173523 211.24560089 94.70111084 211.5773468 C99.81519235 212.50233308 104.11363901 211.16459984 108.96182251 209.5581665 C109.93593079 209.23791 110.91003906 208.9176535 111.91366577 208.58769226 C113.46552582 208.07046349 113.46552582 208.07046349 115.04873657 207.54278564 C116.12310974 207.18906387 117.19748291 206.8353421 118.30441284 206.47090149 C121.72577734 205.34405164 125.14521044 204.21148834 128.56436157 203.07794189 C131.99795488 201.94132893 135.43195279 200.80600614 138.86715698 199.67427063 C141.00270124 198.9705688 143.13729303 198.26396881 145.27084351 197.554245 C146.23234314 197.23714066 147.19384277 196.92003632 148.18447876 196.59332275 C149.03242004 196.31210068 149.88036133 196.0308786 150.7539978 195.74113464 C152.81436157 195.14044189 152.81436157 195.14044189 154.81436157 195.14044189 C154.86765121 194.18629395 154.92094086 193.232146 154.97584534 192.24908447 C155.56505017 182.08176514 156.43816524 171.96168451 157.44326782 161.82794189 C157.59902387 160.23657574 157.75453144 158.64518525 157.9098053 157.05377197 C158.31339766 152.92405176 158.72029744 148.79466436 159.12796021 144.66534424 C159.54566402 140.42807807 159.96013786 136.19049601 160.37490845 131.95294189 C161.18495328 123.68180148 161.9985032 115.41101088 162.81436157 107.14044189 C161.99014143 107.14412907 161.16592129 107.14781624 160.31672478 107.15161514 C140.26114143 107.23995456 120.20559162 107.30614587 100.14985466 107.34769058 C90.45103849 107.36831534 80.75235219 107.39643431 71.05361938 107.44219971 C62.60014482 107.48207009 54.1467643 107.50787534 45.69319832 107.51679587 C41.21710894 107.52201028 36.74128863 107.53426421 32.26528549 107.56336212 C28.05130356 107.59053444 23.83770128 107.59888326 19.62364006 107.59287262 C18.0780843 107.59397205 16.53251569 107.60191533 14.98703575 107.61726379 C12.87358377 107.63722139 10.76155755 107.6323617 8.64807129 107.62145996 C7.46633268 107.62514713 6.28459408 107.6288343 5.06704521 107.63263321 C1.11295233 107.03430568 -1.06738986 105.59454975 -4.18563843 103.14044189 C-8.63413981 96.27435922 -8.47219214 86.04264784 -9.44735718 78.07403564 C-9.64433332 76.51090566 -9.84183797 74.9478422 -10.0398407 73.38484192 C-10.4516557 70.1168394 -10.85678148 66.84809562 -11.25717163 63.57867432 C-11.76527305 59.4344405 -12.29036614 55.2925759 -12.82071209 51.15113735 C-13.23198788 47.92335792 -13.63371849 44.69444131 -14.03281593 41.46513557 C-14.2224409 39.94010004 -14.4149185 38.41541586 -14.61057091 36.89114189 C-15.6085917 29.07579873 -16.39450565 21.27031627 -16.61459351 13.39068604 C-16.65578812 12.11705704 -16.69698273 10.84342804 -16.73942566 9.53120422 C-16.03623476 5.22566398 -14.55755036 3.81364864 -11.18563843 1.14044189 C-7.42440673 -0.113302 -3.9180608 -0.00427963 0 0 Z " fill="#020101" transform="translate(166.18563842773438,191.85955810546875)"/>
<path d="M0 0 C1.24716797 -0.04640625 1.24716797 -0.04640625 2.51953125 -0.09375 C9.86499632 1.54096551 14.03618769 9.00137279 18.125 14.75 C19.29954668 16.38109805 20.47532601 18.01130919 21.65234375 19.640625 C22.22710449 20.43791016 22.80186523 21.23519531 23.39404297 22.05664062 C26.24168997 25.93620109 29.20670831 29.72225069 32.1875 33.5 C36.83005794 29.19906425 40.38130174 24.31802035 44.0625 19.1875 C55.96982759 2.60883621 55.96982759 2.60883621 60.1875 0.5 C64.81963493 -0.05512815 68.16922127 -0.1364242 72.1875 2.375 C75.13650716 5.50832011 75.31876644 7.22004938 75.36450195 11.42114258 C75.38375481 12.95832695 75.38375481 12.95832695 75.40339661 14.52656555 C75.41078354 15.63799423 75.41817047 16.74942291 75.42578125 17.89453125 C75.433853 19.03403732 75.44192474 20.1735434 75.45024109 21.34757996 C75.46408987 23.76271031 75.47480846 26.1778603 75.48266602 28.59301758 C75.49988115 32.28699824 75.54376194 35.98008471 75.58789062 39.67382812 C75.59801706 42.01822257 75.60653331 44.36262464 75.61328125 46.70703125 C75.63078934 47.81238724 75.64829742 48.91774323 75.66633606 50.05659485 C75.64461082 57.73689665 75.64461082 57.73689665 73.28588867 61.67456055 C69.54278862 64.93077452 66.50307976 64.91799151 61.66796875 64.8203125 C59.1875 64.5 59.1875 64.5 56.1875 62.75 C53.24090543 57.96178382 52.778097 53.02693013 52.1875 47.5 C51.43984375 48.47582031 50.6921875 49.45164063 49.921875 50.45703125 C48.92735679 51.74239913 47.93254991 53.02754369 46.9375 54.3125 C46.44636719 54.95509766 45.95523438 55.59769531 45.44921875 56.25976562 C39.46740807 63.95636203 39.46740807 63.95636203 35.07421875 65.00390625 C30.93440816 65.11420316 27.99957867 64.86723699 24.6875 62.25 C19.89543071 57.58196074 16.06149689 51.92886639 12.1875 46.5 C12.16171875 47.30824219 12.1359375 48.11648437 12.109375 48.94921875 C11.64215786 57.7520145 11.64215786 57.7520145 9.25 61.6875 C5.53570091 64.95158102 2.47974261 64.89020768 -2.328125 64.85546875 C-4.8125 64.5 -4.8125 64.5 -7.875 62.1875 C-10.43727016 58.63338333 -10.93857162 56.09948686 -10.97363281 51.83251953 C-10.98804413 50.41557297 -10.98804413 50.41557297 -11.00274658 48.97000122 C-11.00699646 47.95122894 -11.01124634 46.93245667 -11.015625 45.8828125 C-11.02132507 44.83350555 -11.02702515 43.78419861 -11.03289795 42.70309448 C-11.04234686 40.48224903 -11.0488815 38.26138956 -11.05273438 36.04052734 C-11.06244208 32.64525888 -11.09346784 29.25059518 -11.125 25.85546875 C-11.13152995 23.69792026 -11.13678045 21.54036744 -11.140625 19.3828125 C-11.1529718 18.36808868 -11.1653186 17.35336487 -11.17803955 16.30789185 C-11.15060857 7.61604658 -11.15060857 7.61604658 -7.8125 3.5 C-7.35488281 2.9121875 -6.89726562 2.324375 -6.42578125 1.71875 C-4.23504701 0.06376433 -2.72692701 0.03351062 0 0 Z " fill="#010102" transform="translate(276.8125,-0.49999999999999994)"/>
<path d="M0 0 C3.34625024 2.52676039 4.67977847 4.03933542 6 8 C6.13501597 12.33671303 6.04296914 16.66011734 6 21 C12.6 21 19.2 21 26 21 C25.938125 18.958125 25.87625 16.91625 25.8125 14.8125 C25.63063277 8.81088128 26.76170053 5.88955609 30.3828125 1.21484375 C33.21659515 -0.91391568 36.13387065 -0.45805687 39.55078125 -0.36328125 C42.95445483 0.14156986 44.70856669 1.48681508 47 4 C48.23680696 6.47361392 48.14687766 8.15403776 48.17700195 10.92114258 C48.19625481 12.45832695 48.19625481 12.45832695 48.21589661 14.02656555 C48.22328354 15.13799423 48.23067047 16.24942291 48.23828125 17.39453125 C48.246353 18.53403732 48.25442474 19.6735434 48.26274109 20.84757996 C48.27658987 23.26271031 48.28730846 25.6778603 48.29516602 28.09301758 C48.31238115 31.78699824 48.35626194 35.48008471 48.40039062 39.17382812 C48.41051706 41.51822257 48.41903331 43.86262464 48.42578125 46.20703125 C48.44328934 47.31238724 48.46079742 48.41774323 48.47883606 49.55659485 C48.45711082 57.23689665 48.45711082 57.23689665 46.09838867 61.17456055 C42.35217061 64.43348695 39.31751096 64.39039025 34.484375 64.35546875 C32 64 32 64 28.9375 61.6875 C24.78986388 55.93432731 25.9321421 49.85364822 26 43 C19.4 43 12.8 43 6 43 C6.061875 45.041875 6.12375 47.08375 6.1875 49.1875 C6.36936723 55.18911872 5.23829947 58.11044391 1.6171875 62.78515625 C-1.21659515 64.91391568 -4.13387065 64.45805687 -7.55078125 64.36328125 C-10.95445483 63.85843014 -12.70856669 62.51318492 -15 60 C-16.23680696 57.52638608 -16.14687766 55.84596224 -16.17700195 53.07885742 C-16.18983719 52.05406784 -16.20267242 51.02927826 -16.21589661 49.97343445 C-16.22328354 48.86200577 -16.23067047 47.75057709 -16.23828125 46.60546875 C-16.246353 45.46596268 -16.25442474 44.3264566 -16.26274109 43.15242004 C-16.27658987 40.73728969 -16.28730846 38.3221397 -16.29516602 35.90698242 C-16.31238115 32.21300176 -16.35626194 28.51991529 -16.40039062 24.82617188 C-16.41051706 22.48177743 -16.41903331 20.13737536 -16.42578125 17.79296875 C-16.45204338 16.13493477 -16.45204338 16.13493477 -16.47883606 14.44340515 C-16.45711082 6.76310335 -16.45711082 6.76310335 -14.09838867 2.82543945 C-9.88280469 -0.84179981 -5.39411808 -0.77179991 0 0 Z " fill="#010101" transform="translate(112,0)"/>
<path d="M0 0 C1.5672155 -0.02409439 1.5672155 -0.02409439 3.16609192 -0.04867554 C7.94649661 -0.09306697 12.72676171 -0.13418771 17.50732422 -0.15722656 C20.03020446 -0.17379347 22.55303764 -0.20109274 25.07568359 -0.23925781 C28.70915124 -0.2939608 32.34151808 -0.3158914 35.9753418 -0.33056641 C37.10257156 -0.35323578 38.22980133 -0.37590515 39.39118958 -0.39926147 C47.22387958 -0.37808709 47.22387958 -0.37808709 51.18481445 2.58520508 C53.84316618 6.43156851 54.41074692 9.56491224 53.98706055 14.19287109 C51.98154798 18.27817446 50.25468672 20.62590852 45.98706055 22.19287109 C42.53393555 22.38818359 42.53393555 22.38818359 38.73706055 22.31787109 C37.4737793 22.29982422 36.21049805 22.28177734 34.90893555 22.26318359 C33.9447168 22.23998047 32.98049805 22.21677734 31.98706055 22.19287109 C32.00800781 23.25723389 32.02895508 24.32159668 32.05053711 25.41821289 C32.12310017 29.37836175 32.16891905 33.33845219 32.20678711 37.29907227 C32.22686559 39.01108695 32.25413446 40.72303337 32.28881836 42.43481445 C32.33750456 44.89991117 32.36006628 47.36409899 32.37768555 49.82958984 C32.39833069 50.59123947 32.41897583 51.3528891 32.44024658 52.13761902 C32.44181521 55.87778718 32.12759784 57.97384607 30.08764648 61.15307617 C26.4358806 64.69915985 23.39496265 64.58391446 18.47143555 64.54833984 C15.98706055 64.19287109 15.98706055 64.19287109 12.92456055 61.88037109 C9.74636922 57.47191216 9.8523679 53.68800284 9.8894043 48.46240234 C9.89081924 47.71198166 9.89223419 46.96156097 9.89369202 46.18840027 C9.89928495 43.79401649 9.91183611 41.39972656 9.92456055 39.00537109 C9.92957646 37.38102349 9.93413921 35.75667441 9.93823242 34.13232422 C9.94925206 30.1524704 9.96651181 26.17268666 9.98706055 22.19287109 C9.09140381 22.21389893 8.19574707 22.23492676 7.27294922 22.2565918 C6.09966064 22.27294678 4.92637207 22.28930176 3.7175293 22.30615234 C1.97185669 22.33769409 1.97185669 22.33769409 0.19091797 22.36987305 C-4.20104521 22.12723239 -5.85893745 21.1763865 -9.01293945 18.19287109 C-11.48077105 14.4911237 -11.69366678 11.48793634 -11.01293945 7.19287109 C-7.92873252 1.53849172 -6.27632295 0.08754296 0 0 Z " fill="#010101" transform="translate(192.012939453125,-0.19287109375)"/>
<path d="M0 0 C2.82424288 2.19022918 4.41508603 3.83017207 6 7 C6.08667255 9.62627133 6.11560135 12.22562483 6.09765625 14.8515625 C6.0962413 15.62559418 6.09482635 16.39962585 6.09336853 17.19711304 C6.08776403 19.67311442 6.07521083 22.14902588 6.0625 24.625 C6.05748558 26.30208203 6.05292257 27.97916547 6.04882812 29.65625 C6.03779315 33.77086806 6.02052554 37.88541878 6 42 C6.69561035 41.97905273 7.3912207 41.95810547 8.10791016 41.93652344 C11.28012458 41.8530302 14.45210731 41.80123471 17.625 41.75 C19.26662109 41.69972656 19.26662109 41.69972656 20.94140625 41.6484375 C27.27515938 41.57166473 31.25338428 41.61608249 36 46 C38.4678316 49.70174739 38.68072732 52.70493475 38 57 C35 62.5 35 62.5 32 64 C30.66891009 64.11372327 29.33255609 64.16922953 27.99682617 64.19287109 C27.17224411 64.20893402 26.34766205 64.22499695 25.49809265 64.24154663 C21.72521801 64.28602528 17.95251891 64.32706263 14.17944336 64.35009766 C12.19006653 64.36665551 10.20074915 64.39394328 8.21166992 64.43212891 C5.34262245 64.48692264 2.47496913 64.50877517 -0.39453125 64.5234375 C-1.28114944 64.54610687 -2.16776764 64.56877625 -3.08125305 64.59213257 C-7.58202448 64.57675275 -9.39880701 64.47649002 -13.0378418 61.59228516 C-15.64560831 58.14706121 -16.12875477 56.52120984 -16.17700195 52.27832031 C-16.18983719 51.29679993 -16.20267242 50.31527954 -16.21589661 49.30401611 C-16.22328354 48.23947205 -16.23067047 47.17492798 -16.23828125 46.078125 C-16.246353 44.98538269 -16.25442474 43.89264038 -16.26274109 42.76678467 C-16.27659019 40.45000804 -16.28730864 38.13321094 -16.29516602 35.81640625 C-16.31236269 32.2782504 -16.35624077 28.74103264 -16.40039062 25.203125 C-16.41051878 22.95313188 -16.4190345 20.7031308 -16.42578125 18.453125 C-16.44328934 17.39667786 -16.46079742 16.34023071 -16.47883606 15.25177002 C-16.46101942 9.19754622 -16.09836929 5.58330722 -12 1 C-8.28546768 -0.85726616 -4.04420575 -0.58501089 0 0 Z " fill="#010102" transform="translate(389,0)"/>
<path d="M0 0 C0.8971875 0.309375 0.8971875 0.309375 1.8125 0.625 C0.69875 1.2746875 0.69875 1.2746875 -0.4375 1.9375 C-2.80583926 3.39079909 -4.99674065 4.92107606 -7.1875 6.625 C-4.6484375 -0.796875 -4.6484375 -0.796875 0 0 Z " fill="#0D1113" transform="translate(381.1875,0.375)"/>
<path d="M0 0 C0.8971875 0.309375 0.8971875 0.309375 1.8125 0.625 C0.69875 1.2746875 0.69875 1.2746875 -0.4375 1.9375 C-2.80583926 3.39079909 -4.99674065 4.92107606 -7.1875 6.625 C-4.6484375 -0.796875 -4.6484375 -0.796875 0 0 Z " fill="#0D1113" transform="translate(189.1875,0.375)"/>
</svg>
