<?xml version="1.0" encoding="UTF-8"?>
<svg version="1.1" xmlns="http://www.w3.org/2000/svg" width="512" height="512">
<path d="M0 0 C0.88822834 -0.09211441 1.77645669 -0.18422882 2.69160104 -0.27913457 C187.69420521 -19.16416514 187.69420521 -19.16416514 295.42743695 31.84289742 C300.37683915 35.89312925 305.09715585 40.16651515 309.75117493 44.55081177 C310.41181238 45.1679388 311.07244983 45.78506582 311.75310659 46.42089367 C362.21908943 94.03190138 365.43234932 158.97757137 367.43447685 224.11667061 C369.41670117 293.72451637 366.50873642 363.53504131 361.85340352 432.9870315 C361.70315281 435.23507848 361.55586069 437.48330616 361.40876949 439.73156178 C361.13753023 443.84113394 360.84246058 447.94860637 360.54249573 452.05618286 C360.46321581 453.24542781 360.38393589 454.43467276 360.30225354 455.65995544 C359.47827357 466.31181725 357.58834256 474.7459294 349.31367493 481.98831177 C343.91695043 485.41448916 338.9431828 487.11162852 332.53482628 487.12253284 C331.32218176 487.12699069 330.10953725 487.13144853 328.86014593 487.13604146 C327.50744652 487.13595216 326.15474711 487.1357623 324.80204773 487.13548279 C323.37044125 487.13878148 321.93883571 487.14250706 320.50723135 487.14662427 C316.56363583 487.15665194 312.62005553 487.1603623 308.67644906 487.16301358 C304.42679461 487.16691439 300.17715224 487.17649292 295.92750549 487.18522644 C285.6594378 487.20499777 275.39136911 487.21505818 265.12328714 487.22395423 C260.28890795 487.22833628 255.45452985 487.23370332 250.62015152 487.2389431 C234.55106776 487.2559565 218.48198468 487.27045072 202.4128933 487.27769184 C198.24196242 487.27960177 194.07103156 487.28152209 189.90010071 487.28347778 C188.86342407 487.28396152 187.82674742 487.28444526 186.75865634 487.28494366 C169.96485731 487.2932441 153.17112951 487.31858075 136.37736158 487.35105846 C119.13888254 487.38412461 101.9004397 487.40214022 84.66192877 487.40533608 C74.98181787 487.40750165 65.30181081 487.41625716 55.6217308 487.44179726 C47.37763942 487.46349822 39.1336771 487.47155767 30.88956039 487.46183047 C26.68387026 487.45728394 22.47844646 487.45919242 18.27279282 487.47859192 C14.41970905 487.49621144 10.56708614 487.49523598 6.71399756 487.47969463 C5.3229482 487.47731668 3.93186703 487.48165188 2.5408663 487.49352328 C-8.11836495 487.57883069 -16.16505968 486.02834324 -24.18241882 478.69924927 C-29.62250917 472.51026337 -30.83805307 465.60369203 -30.81775284 457.61838245 C-30.81980547 456.87020228 -30.82185811 456.1220221 -30.82397294 455.35116979 C-30.82965263 452.83003898 -30.8281845 450.30896264 -30.82676697 447.78782654 C-30.82935005 445.96762615 -30.83236305 444.14742633 -30.83577037 442.32722729 C-30.84385034 437.31414175 -30.8456305 432.30107053 -30.84636784 427.28797925 C-30.84821666 421.88564171 -30.85576314 416.48331163 -30.86250305 411.08097839 C-30.87609405 399.26280706 -30.88211231 387.44463912 -30.88651371 375.62646127 C-30.88927488 368.24924094 -30.893512 360.87202192 -30.89801788 353.49480247 C-30.91021163 333.07559065 -30.92051068 312.65637988 -30.92389297 292.2371645 C-30.92411254 290.92988487 -30.92433211 289.62260524 -30.92455833 288.27571107 C-30.9247766 286.96527559 -30.92499488 285.65484012 -30.92521977 284.30469447 C-30.92566324 281.64918474 -30.92610981 278.99367501 -30.92655945 276.33816528 C-30.92678088 275.02093635 -30.92700231 273.70370742 -30.92723045 272.34656247 C-30.93117886 251.00040952 -30.94863375 229.65429502 -30.97191897 208.30815456 C-30.99562418 186.4004327 -31.00809445 164.49272796 -31.00926089 142.58499306 C-31.01017813 130.28138285 -31.01594265 117.97781711 -31.03408051 105.67421913 C-31.04947028 95.19770429 -31.05460858 84.72124765 -31.0463424 74.24472366 C-31.04243192 68.89885861 -31.04338502 63.5531108 -31.05739975 58.20726013 C-31.07011458 53.31251152 -31.06896235 48.41796855 -31.05680904 43.52322032 C-31.05484785 41.75333756 -31.0579499 39.98344035 -31.0666534 38.2135779 C-31.12026867 26.57301662 -31.08028146 16.67558106 -22.65507507 7.71487427 C-16.03895411 1.9126412 -8.48154492 0.86940103 0 0 Z " fill="#F5EFF5" transform="translate(91.68632507324219,12.011688232421875)"/>
<path d="M0 0 C128.7 0 257.4 0 390 0 C390 104.71775478 390 104.71775478 381.97265625 113.2734375 C376.54465917 118.02427851 370.35633733 120.12207999 363.22115135 120.13422108 C362.00850684 120.13867892 360.79586232 120.14313676 359.546471 120.14772969 C358.19377159 120.1476404 356.84107219 120.14745054 355.4883728 120.14717102 C354.05676633 120.15046971 352.62516078 120.15419529 351.19355643 120.1583125 C347.2499609 120.16834017 343.3063806 120.17205053 339.36277413 120.17470181 C335.11311968 120.17860262 330.86347731 120.18818115 326.61383057 120.19691467 C316.34576287 120.21668601 306.07769419 120.22674641 295.80961221 120.23564246 C290.97523302 120.24002451 286.14085492 120.24539156 281.30647659 120.25063133 C265.23739283 120.26764473 249.16830976 120.28213895 233.09921837 120.28938007 C228.9282875 120.29129 224.75735663 120.29321033 220.58642578 120.29516602 C219.54974914 120.29564976 218.5130725 120.2961335 217.44498141 120.2966319 C200.65118238 120.30493233 183.85745458 120.33026899 167.06368665 120.36274669 C149.82520761 120.39581284 132.58676477 120.41382846 115.34825385 120.41702431 C105.66814294 120.41918989 95.98813589 120.42794539 86.30805588 120.45348549 C78.06396449 120.47518645 69.82000217 120.4832459 61.57588546 120.47351871 C57.37019533 120.46897217 53.16477154 120.47088065 48.95911789 120.49028015 C45.10603412 120.50789967 41.25341121 120.50692421 37.40032263 120.49138286 C36.00927327 120.48900492 34.61819211 120.49334012 33.22719137 120.50521151 C22.56796013 120.59051892 14.52126539 119.04003147 6.50390625 111.7109375 C-18.12167337 83.69534302 0 37.30003627 0 0 Z " fill="#8554E0" transform="translate(61,379)"/>
<path d="M0 0 C3.87421238 1.59149966 6.3239326 4.07496355 9.26446533 7.01722717 C9.78241063 7.53275805 10.30035593 8.04828894 10.83399653 8.57944196 C12.56762194 10.30743331 14.29400894 12.04247831 16.02050781 13.77758789 C17.2620393 15.01804646 18.50400362 16.25807194 19.74636841 17.49769592 C23.11838824 20.86486716 26.48412305 24.23825723 29.8486414 27.61292195 C33.36608829 31.13914489 36.88879858 34.66010231 40.41082764 38.18174744 C46.3222226 44.09407897 52.22973067 50.01027173 58.13476562 55.92895508 C64.97179841 62.78173144 71.81406199 69.62924893 78.65933728 76.47379118 C85.23560384 83.04944851 91.80901387 89.62795317 98.38082123 96.20806694 C101.18228521 99.01307062 103.98460515 101.81721508 106.78757477 104.62071419 C110.08294632 107.91708648 113.37576911 111.21598374 116.66659164 114.5168972 C117.87836622 115.73160494 119.09100096 116.94545525 120.3045311 118.15840912 C121.95316831 119.80655945 123.59872119 121.45772636 125.24346924 123.10975647 C126.16744129 124.03540437 127.09141335 124.96105227 128.04338455 125.9147501 C130 128 130 128 130 129 C116.12594954 129.14065658 102.2520109 129.24580749 88.37739182 129.31087303 C81.93395919 129.34211029 75.49100747 129.38444542 69.04785156 129.45263672 C62.82324789 129.51809847 56.59910515 129.55376318 50.37418365 129.56926346 C48.00602214 129.5803016 45.63788424 129.60185628 43.26992035 129.63438034 C18.08863784 129.96631414 18.08863784 129.96631414 8.11444092 121.37606812 C1.21310544 114.15785721 -0.59795368 105.84048708 -0.45410156 96.15600586 C-0.45497772 94.58858643 -0.45497772 94.58858643 -0.45587158 92.98950195 C-0.45310342 89.56426809 -0.4220706 86.13992403 -0.390625 82.71484375 C-0.38315812 80.32874527 -0.3774673 77.94264063 -0.37347412 75.55653381 C-0.35825313 69.29780945 -0.31900136 63.03946054 -0.2746582 56.78088379 C-0.2336294 50.38587522 -0.21544685 43.99080557 -0.1953125 37.59570312 C-0.15250404 25.06364256 -0.08507186 12.53184132 0 0 Z " fill="#C3B8C3" transform="translate(321,14)"/>
<path d="M0 0 C5.28 0 10.56 0 16 0 C15.98667633 1.32638489 15.97335266 2.65276978 15.95962524 4.01934814 C15.83769784 16.55365532 15.74790923 29.08784128 15.68912697 41.62260818 C15.65788971 48.06604081 15.61555458 54.50899253 15.54736328 60.95214844 C15.48190153 67.17675211 15.44623682 73.40089485 15.43073654 79.62581635 C15.4196984 81.99397786 15.39814372 84.36211576 15.36561966 86.73007965 C14.69028202 104.40658163 14.69028202 104.40658163 22 120 C29.65105638 127.42976596 37.31655028 129.44751829 47.70874023 129.43237305 C48.76314804 129.4425647 49.81755585 129.45275635 50.90391541 129.46325684 C54.37219595 129.49333365 57.84020004 129.50264491 61.30859375 129.51171875 C63.71998509 129.52856932 66.13136766 129.54672007 68.54273987 129.56611633 C74.8769151 129.61358106 81.21105479 129.64341347 87.54534912 129.66955566 C94.01402809 129.6993788 100.48258466 129.74590318 106.95117188 129.79101562 C119.63405051 129.87700876 132.31695437 129.94437198 145 130 C145 134.95 145 139.9 145 145 C131.20438343 145.04639799 117.40878552 145.08190718 103.61310673 145.10362434 C97.20680543 145.11404895 90.80055763 145.12818411 84.39428711 145.15087891 C78.20864272 145.17265428 72.02304969 145.18457858 65.83736992 145.18975449 C63.48074981 145.1934418 61.12413242 145.20064217 58.76753426 145.21146011 C55.45962636 145.22603726 52.15192913 145.22797532 48.84399414 145.22705078 C47.8758226 145.23424133 46.90765106 145.24143188 45.91014099 145.24884033 C32.05143125 145.20709308 21.39585978 141.05026051 11.26171875 131.45703125 C2.55598894 121.9995113 -0.47691218 111.47317381 -0.34057617 98.88061523 C-0.34123329 97.26930473 -0.34123329 97.26930473 -0.34190369 95.6254425 C-0.33982696 92.10296954 -0.31654823 88.58098275 -0.29296875 85.05859375 C-0.28736884 82.60523234 -0.28310061 80.15186756 -0.28010559 77.69850159 C-0.26868801 71.26230499 -0.23924723 64.82631364 -0.20599365 58.39019775 C-0.17522624 51.81419653 -0.161586 45.23816193 -0.14648438 38.66210938 C-0.11437471 25.77464974 -0.06321564 12.88734198 0 0 Z " fill="#E0DADF" transform="translate(306,13)"/>
<path d="M0 0 C6.45657989 1.70828429 11.603407 5.01926077 15.11195374 10.84695435 C16.1488269 13.36082705 16.25776106 15.23317782 16.27124023 17.94873047 C16.28142685 18.93009979 16.29161346 19.91146912 16.30210876 20.9225769 C16.30424881 21.9767984 16.30638885 23.0310199 16.30859375 24.1171875 C16.33375312 26.35547136 16.35915115 28.59375255 16.38476562 30.83203125 C16.41350789 34.35627556 16.43752915 37.88047348 16.45629883 41.40478516 C16.47797214 44.80916303 16.51741315 48.21299786 16.55859375 51.6171875 C16.55870956 52.66736053 16.55882538 53.71753357 16.5589447 54.79953003 C16.63264346 60.25657697 16.85193075 64.32141228 20 69 C21.96310967 70.47069358 21.96310967 70.47069358 24.25 71.25 C25.04148437 71.56324219 25.83296875 71.87648438 26.6484375 72.19921875 C28.71314029 72.90231522 30.76597456 73.51056356 32.875 74.0625 C37.44104803 75.43231441 37.44104803 75.43231441 39 78 C39.41391501 81.24233426 39.43212037 83.2172365 37.83984375 86.1015625 C35.42051396 88.59794101 33.58013806 88.81871696 30.1875 89.4375 C24.73645974 90.64517599 21.7873917 91.90552249 18 96 C17.02996368 98.91010896 16.86507856 100.8052194 16.84228516 103.83520508 C16.82689194 105.30737236 16.82689194 105.30737236 16.81118774 106.8092804 C16.80388641 107.86866318 16.79658508 108.92804596 16.7890625 110.01953125 C16.76099291 112.261075 16.73232844 114.50261136 16.703125 116.74414062 C16.66187199 120.27937608 16.62498529 123.8144738 16.59863281 127.34985352 C16.57099975 130.76086941 16.52512617 134.17125768 16.4765625 137.58203125 C16.47330963 138.63534134 16.47005676 139.68865143 16.46670532 140.77388 C16.37526751 146.2431119 16.14457661 150.31477629 13 155 C6.92645212 160.80948058 2.15878752 162.35022217 -6.125 162.3125 C-7.19814453 162.33666992 -7.19814453 162.33666992 -8.29296875 162.36132812 C-13.45881925 162.36615602 -13.45881925 162.36615602 -15.96875 160.66796875 C-17.59362982 158.03984874 -17.37602373 156.0081898 -17 153 C-15.29546946 150.62603338 -14.34155543 150.06361796 -11.44140625 149.5234375 C-10.49136719 149.47445312 -9.54132813 149.42546875 -8.5625 149.375 C-5.22494937 149.18428282 -2.22704926 148.85762178 1 148 C1.00364563 147.37883301 1.00729126 146.75766602 1.01104736 146.11767578 C1.05299342 139.62804307 1.1224238 133.13910963 1.20751953 126.64990234 C1.23567231 124.23102832 1.25691502 121.81206327 1.27099609 119.39306641 C1.29250367 115.90740551 1.33919693 112.42283248 1.390625 108.9375 C1.39185364 107.86322754 1.39308228 106.78895508 1.39434814 105.68212891 C1.53763694 98.26682394 2.5340169 92.38750801 8.0703125 86.9765625 C8.74835938 86.53054687 9.42640625 86.08453125 10.125 85.625 C12.31548912 84.1453866 14.12230657 82.87769343 16 81 C15.46890625 80.62488281 14.9378125 80.24976563 14.390625 79.86328125 C8.19927563 75.37794238 3.97819181 71.61385453 2 64 C1.70541534 60.32841974 1.69918707 56.6663666 1.69140625 52.984375 C1.66626938 50.82551786 1.64087106 48.66666376 1.61523438 46.5078125 C1.5863765 43.11491536 1.56234652 39.72207044 1.54370117 36.32910156 C1.52215377 33.04726619 1.48275062 29.76601166 1.44140625 26.484375 C1.44129044 25.46357849 1.44117462 24.44278198 1.4410553 23.39105225 C1.42771652 22.44957336 1.41437775 21.50809448 1.40063477 20.53808594 C1.39556412 19.70790955 1.39049347 18.87773315 1.38526917 18.0223999 C1.25813034 17.35500793 1.13099152 16.68761597 1 16 C-2.30941377 13.79372415 -3.574407 13.76128279 -7.4375 13.625 C-10.95270744 13.35066503 -12.66641837 13.20945823 -15.6875 11.3125 C-17.4061374 8.28442457 -17.51073645 6.42923043 -17 3 C-13.41673589 -2.33089116 -5.59756905 -0.54818413 0 0 Z " fill="#8756E0" transform="translate(310,168)"/>
<path d="M0 0 C1.98695343 2.88108247 1.59275339 5.3321916 1.171875 8.69921875 C-1.81894883 11.69699799 -4.24827344 12.08700732 -8.390625 12.26171875 C-12.2340941 12.43381438 -13.53780999 12.50567541 -16.828125 14.69921875 C-17.27655858 16.85856271 -17.27655858 16.85856271 -17.19702148 19.38916016 C-17.20390488 20.36422516 -17.21078827 21.33929016 -17.21788025 22.34390259 C-17.21172195 23.40217255 -17.20556366 24.4604425 -17.19921875 25.55078125 C-17.21661207 27.78645978 -17.23419633 30.02213683 -17.25195312 32.2578125 C-17.26200098 35.78632457 -17.26562961 39.31473598 -17.26391602 42.84326172 C-17.26749993 46.24607282 -17.29490886 49.6481087 -17.32421875 53.05078125 C-17.31603622 54.09690582 -17.3078537 55.1430304 -17.29942322 56.22085571 C-17.36613984 62.82884769 -18.34098132 67.05031383 -21.828125 72.69921875 C-23.8984375 74.72265625 -23.8984375 74.72265625 -25.953125 76.07421875 C-28.14361412 77.55383215 -29.95043157 78.82152532 -31.828125 80.69921875 C-31.29703125 81.00214844 -30.7659375 81.30507812 -30.21875 81.6171875 C-24.0437715 85.2793554 -20.22203442 88.76729252 -17.828125 95.69921875 C-17.56983948 98.09584045 -17.56983948 98.09584045 -17.55688477 100.60961914 C-17.54669815 101.55732681 -17.53651154 102.50503448 -17.52601624 103.48146057 C-17.52387619 104.49304733 -17.52173615 105.50463409 -17.51953125 106.546875 C-17.49438306 108.69987264 -17.46898487 110.85286737 -17.44335938 113.00585938 C-17.41456104 116.39200155 -17.39053453 119.77809348 -17.37182617 123.16430664 C-17.35021268 126.43791956 -17.31079008 129.71095948 -17.26953125 132.984375 C-17.26941544 133.99798599 -17.26929962 135.01159698 -17.2691803 136.05592346 C-17.24917213 137.47275673 -17.24917213 137.47275673 -17.22875977 138.91821289 C-17.22368912 139.74696426 -17.21861847 140.57571564 -17.21339417 141.42958069 C-16.73544494 144.24520119 -15.77583881 145.63497987 -13.828125 147.69921875 C-11.23319321 148.28701763 -11.23319321 148.28701763 -8.390625 148.26171875 C-4.21989947 148.35818451 -1.83168206 148.66065519 1.171875 151.69921875 C1.546875 155.26171875 1.546875 155.26171875 1.171875 158.69921875 C-1.38195393 161.25304768 -3.15259578 161.00867041 -6.64379883 161.0793457 C-15.48542142 161.05971635 -21.50303779 160.91048788 -28.203125 154.38671875 C-32.18965329 147.79361427 -32.13235335 141.15499299 -32.171875 133.65625 C-32.1864978 132.61023117 -32.20112061 131.56421234 -32.21618652 130.48649597 C-32.27821012 126.03254046 -32.31813038 121.57845208 -32.35986328 117.12426758 C-32.39357518 113.86394722 -32.4386741 110.60392075 -32.484375 107.34375 C-32.4896521 106.33641312 -32.4949292 105.32907623 -32.50036621 104.29121399 C-32.51378052 103.35311386 -32.52719482 102.41501373 -32.54101562 101.44848633 C-32.54830688 100.62576736 -32.55559814 99.8030484 -32.56311035 98.95539856 C-32.85681542 96.45496526 -33.52262241 94.84065689 -34.828125 92.69921875 C-38.66910414 89.88065852 -43.00660197 88.56241912 -47.640625 87.69921875 C-50.45470419 87.13057062 -51.66413326 86.82944749 -53.953125 85.01171875 C-55.26156871 81.55368895 -54.78993474 79.22585445 -53.828125 75.69921875 C-49.92636483 71.93614674 -44.91474362 71.14846786 -39.82421875 69.76171875 C-36.91868915 68.73133537 -35.59397848 68.17260275 -33.828125 65.69921875 C-32.89119672 62.70518481 -32.69449391 59.9697003 -32.67041016 56.84228516 C-32.66014801 55.88093658 -32.64988586 54.91958801 -32.63931274 53.92910767 C-32.63201141 52.89675995 -32.62471008 51.86441223 -32.6171875 50.80078125 C-32.58912216 48.60806541 -32.56045772 46.41535717 -32.53125 44.22265625 C-32.48998143 40.77083524 -32.45308639 37.31915667 -32.42675781 33.8671875 C-32.39912552 30.53225543 -32.35325833 27.19796536 -32.3046875 23.86328125 C-32.30143463 22.83498199 -32.29818176 21.80668274 -32.29483032 20.7472229 C-32.18642584 14.41528071 -31.50847933 9.8749297 -27.28515625 4.87109375 C-21.07155015 -0.50124027 -7.54786902 -5.37059911 0 0 Z " fill="#8655E0" transform="translate(187.828125,169.30078125)"/>
<path d="M0 0 C7.05937657 3.34206366 11.98345912 9.63491865 14.8359375 16.828125 C17.14094955 26.10240876 16.21511895 35.31737077 12.11328125 43.90234375 C8.51838173 49.69074128 3.37131265 54.00447441 -3.17578125 56.0625 C-12.06862592 57.73644723 -20.63946121 57.16373516 -28.5 52.5 C-34.46996661 48.17177421 -37.94483582 42.69034731 -39.5 35.5 C-40.67851145 25.89392912 -40.68166002 16.43933684 -34.5 8.5 C-25.10031914 -1.63312619 -13.31193477 -4.59384252 0 0 Z " fill="#8654E0" transform="translate(287.5,411.5)"/>
<path d="M0 0 C0.66213092 -0.00538554 1.32426184 -0.01077108 2.00645733 -0.01631981 C4.22365121 -0.03061979 6.44024978 -0.02349105 8.6574707 -0.01637268 C10.24761434 -0.02207516 11.83775389 -0.02903895 13.42788696 -0.03717041 C17.7460217 -0.05512929 22.06395353 -0.05392849 26.38211441 -0.04822803 C29.98567898 -0.0451405 33.58920433 -0.05122367 37.19276333 -0.05726677 C45.69242545 -0.07131898 54.19198708 -0.06974457 62.69165039 -0.05836487 C71.46453654 -0.04687903 80.23711715 -0.06096549 89.00996304 -0.08776134 C96.53957748 -0.10989997 104.06909589 -0.11656 111.59874058 -0.11068493 C116.09701923 -0.1073102 120.59510194 -0.10976467 125.09335327 -0.12693596 C129.32221308 -0.14237415 133.55061922 -0.13848468 137.77946091 -0.11963081 C139.33228848 -0.1159364 140.88514944 -0.11907818 142.43794632 -0.1295166 C144.55632554 -0.14267101 146.67319043 -0.13123124 148.79150391 -0.11352539 C150.5701458 -0.11321146 150.5701458 -0.11321146 152.38471985 -0.1128912 C156.03221797 0.49348982 157.21713412 1.44322036 159.39575195 4.38768005 C159.94780439 8.25204711 160.1380905 10.38503618 157.77684689 13.57426357 C154.63115107 15.96999193 152.73222868 15.89302103 148.79823303 15.90234375 C148.13680768 15.90928928 147.47538233 15.91623481 146.79391378 15.92339081 C144.57889969 15.94167866 142.36495453 15.93139258 140.14990234 15.92112732 C138.56137795 15.92818498 136.97286028 15.93692935 135.38435364 15.94723511 C131.0702328 15.96975686 126.75647834 15.96678288 122.44232106 15.95791364 C118.84132562 15.95280706 115.24039924 15.96009365 111.63941091 15.96738571 C103.14447439 15.98439372 94.64971746 15.98081001 86.15478516 15.96409607 C77.38980257 15.94717383 68.62531796 15.9630085 59.86038977 15.99531895 C52.33583961 16.02200652 44.81144456 16.02929312 37.28685182 16.02080387 C32.79241571 16.01587217 28.29827925 16.01810318 23.80388069 16.03859138 C19.57738556 16.05693553 15.35160719 16.05100589 11.12515068 16.02639198 C9.57435845 16.02137996 8.02351174 16.02488411 6.47276306 16.03754044 C4.35443523 16.05346078 2.23847074 16.03853547 0.12025452 16.01586914 C-1.65700469 16.01498968 -1.65700469 16.01498968 -3.47016811 16.01409245 C-7.55892048 15.19686851 -9.07835901 13.64537942 -11.60424805 10.38768005 C-11.66674805 6.76268005 -11.66674805 6.76268005 -10.60424805 3.38768005 C-7.32404918 0.04188924 -4.56213502 0.00934886 0 0 Z " fill="#E1D9E1" transform="translate(103.604248046875,36.61231994628906)"/>
<path d="M0 0 C5.18965815 0.93413847 7.73107376 3.64243493 10.71875 7.7578125 C12.00666431 9.69533271 13.27658311 11.6448557 14.53515625 13.6015625 C17.86980408 18.76268479 21.41782075 23.7767143 24.9375 28.8125 C30.2435878 36.41754326 35.53249835 44.03311786 40.76293945 51.69042969 C42.82222597 54.69873587 44.9266084 57.6547471 47.125 60.5625 C47.13086624 59.85506149 47.13673248 59.14762299 47.14277649 58.41874695 C47.20067101 51.75305068 47.27272853 45.08767582 47.36071491 38.42230511 C47.40545028 34.99550921 47.44469888 31.56883305 47.47143555 28.1418457 C47.50241047 24.2023769 47.55720098 20.26341349 47.61328125 16.32421875 C47.62286613 14.4772364 47.62286613 14.4772364 47.63264465 12.59294128 C47.66233589 10.88150688 47.66233589 10.88150688 47.69262695 9.13549805 C47.70373001 8.129561 47.71483307 7.12362396 47.72627258 6.08720398 C48.125 3.5625 48.125 3.5625 49.49186707 1.70246887 C51.125 0.5625 51.125 0.5625 53.6875 0.75 C56.125 1.5625 56.125 1.5625 58.125 3.5625 C58.39915466 6.35090637 58.39915466 6.35090637 58.43139648 9.95239258 C58.43972 10.60789597 58.44804352 11.26339935 58.45661926 11.93876648 C58.48076623 14.11158141 58.48949781 16.28409626 58.49609375 18.45703125 C58.50505815 19.96677237 58.51417996 21.47651257 58.52345276 22.98625183 C58.53995917 26.15467489 58.54764556 29.32299209 58.55053711 32.49145508 C58.55591584 36.54712021 58.59356598 40.60178686 58.63928127 44.6571703 C58.66906308 47.77735499 58.67626093 50.8972999 58.67726326 54.01761436 C58.68146517 55.51234182 58.69389857 57.00707 58.71478081 58.50165749 C58.74171562 60.59665238 58.73686646 62.68934275 58.72436523 64.78442383 C58.72943588 65.97530106 58.73450653 67.16617828 58.73973083 68.3931427 C57.94368355 72.49731016 56.33821735 73.97566714 53.125 76.5625 C50.25 77.375 50.25 77.375 47.125 76.5625 C41.25179587 71.14495969 36.85618367 64.11641535 32.375 57.5625 C31.67689209 56.55010254 30.97878418 55.53770508 30.25952148 54.49462891 C28.21001477 51.52042813 26.16696254 48.54188326 24.125 45.5625 C23.06945206 44.02834187 22.01350833 42.49445593 20.95703125 40.9609375 C19.25104355 38.48371811 17.54780871 36.00466419 15.84765625 33.5234375 C11.95987227 27.85617813 8.0391935 22.21153237 4.125 16.5625 C4.11913376 17.26993851 4.11326752 17.97737701 4.10722351 18.70625305 C4.04932899 25.37194932 3.97727147 32.03732418 3.88928509 38.70269489 C3.84454972 42.12949079 3.80530112 45.55616695 3.77856445 48.9831543 C3.74758953 52.9226231 3.69279902 56.86158651 3.63671875 60.80078125 C3.63032883 62.03210281 3.6239389 63.26342438 3.61735535 64.53205872 C3.59756119 65.67301498 3.57776703 66.81397125 3.55737305 67.98950195 C3.54071846 69.49840752 3.54071846 69.49840752 3.52372742 71.03779602 C3.125 73.5625 3.125 73.5625 1.75813293 75.42253113 C0.125 76.5625 0.125 76.5625 -2.4375 76.375 C-4.875 75.5625 -4.875 75.5625 -6.875 73.5625 C-7.14242554 70.72940063 -7.14242554 70.72940063 -7.16552734 67.06494141 C-7.17224457 66.39807816 -7.17896179 65.7312149 -7.18588257 65.04414368 C-7.20491945 62.83404133 -7.20878971 60.62424179 -7.2109375 58.4140625 C-7.21736208 56.87950515 -7.22409018 55.34494904 -7.23110962 53.81039429 C-7.24309701 50.5906897 -7.24678901 47.37109252 -7.24560547 44.15136719 C-7.24540233 40.02624382 -7.27269227 35.90180977 -7.30714989 31.77684975 C-7.32939358 28.60609783 -7.33344378 25.43551236 -7.33238602 22.2646904 C-7.33474627 20.74403892 -7.34359375 19.22338314 -7.35905075 17.70280838 C-7.37865879 15.5743318 -7.37289481 13.44734853 -7.36083984 11.31884766 C-7.36368988 10.10798492 -7.36653992 8.89712219 -7.36947632 7.64956665 C-6.62104796 2.97705122 -4.62702179 0.90528687 0 0 Z " fill="#FAF9FE" transform="translate(335.875,400.4375)"/>
<path d="M0 0 C1.95170609 -0.01073296 1.95170609 -0.01073296 3.94284058 -0.02168274 C7.50913373 -0.04020178 11.07467955 -0.02725595 14.64094162 -0.00759244 C18.3733482 0.00879172 22.10570737 -0.00001849 25.83813477 -0.00511169 C32.10607849 -0.00963295 38.37372382 0.00623885 44.64160156 0.03417969 C51.88765502 0.06623202 59.1331703 0.06621614 66.37926197 0.04896492 C73.35039326 0.03309979 80.32132729 0.0398332 87.29244995 0.05690193 C90.2589137 0.06377368 93.22521938 0.06273881 96.19168091 0.05535698 C100.33382046 0.04627162 104.47512894 0.07022933 108.6171875 0.09765625 C109.84952118 0.09113037 111.08185486 0.08460449 112.35153198 0.07788086 C114.04235397 0.09696754 114.04235397 0.09696754 115.76733398 0.11643982 C116.74661362 0.11924674 117.72589325 0.12205366 118.73484802 0.12494564 C122.05422912 0.77774163 123.25132329 1.99334957 125.30859375 4.63110352 C125.81206697 8.08349133 125.72415529 9.89892366 123.99609375 12.94360352 C121.01885423 15.92084304 117.99318381 15.75915188 114.0014801 15.77154541 C112.3505838 15.78011063 112.3505838 15.78011063 110.66633606 15.78884888 C109.45845932 15.78996674 108.25058258 15.79108459 107.00610352 15.79223633 C105.73437286 15.79720123 104.46264221 15.80216614 103.15237427 15.80728149 C99.66272573 15.82039602 96.17309642 15.82684831 92.6834271 15.83129215 C90.50357317 15.83422371 88.3237245 15.83832862 86.14387321 15.84279633 C79.3244452 15.85646723 72.50502919 15.86613653 65.68558842 15.86999822 C57.81158244 15.87448159 49.93774983 15.89204402 42.06379658 15.92099881 C35.97794537 15.94260229 29.892143 15.95270174 23.80625385 15.95403934 C20.17092946 15.9550881 16.53576813 15.96101117 12.90048409 15.97885895 C8.84704147 15.99837323 4.79396285 15.99405605 0.74047852 15.98754883 C-1.06830025 16.001371 -1.06830025 16.001371 -2.91362 16.01547241 C-4.56874603 16.00711868 -4.56874603 16.00711868 -6.25730896 15.99859619 C-7.21576438 16.00006275 -8.1742198 16.00152931 -9.16171932 16.00304031 C-12.17715016 15.55968518 -13.52529886 14.75333262 -15.69140625 12.63110352 C-16.83225215 8.78074862 -17.1439368 6.63874041 -15.48461914 2.94398499 C-10.87516179 -0.8728127 -5.79631052 -0.05499454 0 0 Z " fill="#E1D9E1" transform="translate(108.69140625,74.368896484375)"/>
<path d="M0 0 C9.57264226 7.01075526 15.813602 15.25019701 18 27 C19.29343703 37.91603998 17.23656988 48.95665767 10.875 58.03125 C3.99673992 65.93195414 -3.34251518 71.16301608 -13.95458984 72.18896484 C-26.49092052 72.98891039 -36.03599852 71.25336165 -45.9609375 63.046875 C-49.50839073 59.48583 -51.82250089 55.50156065 -54 51 C-54.3403125 50.30261719 -54.680625 49.60523438 -55.03125 48.88671875 C-58.814241 39.58686587 -58.10569172 27.99602728 -55.1015625 18.5625 C-50.70744564 8.34072462 -43.18990969 1.30240631 -33 -3 C-22.62787499 -5.65376892 -9.36317297 -5.46551411 0 0 Z M-42.4921875 15.7421875 C-46.32329871 21.47892916 -47.53417222 26.57893733 -47.4375 33.3125 C-47.42920166 34.05870605 -47.42090332 34.80491211 -47.41235352 35.57373047 C-47.16804217 43.5881859 -45.27020493 49.80380013 -39.875 55.875 C-32.93963354 62.09038138 -25.26290807 63.70536104 -16.11328125 63.3828125 C-11.48294016 62.81346065 -7.94221799 61.45808887 -4 59 C-3.04480469 58.41605469 -3.04480469 58.41605469 -2.0703125 57.8203125 C3.70435942 53.63181656 6.23251853 47.76759354 8 41 C9.43577748 30.72113851 7.97713913 22.55007982 2 14 C-2.98643757 8.14180761 -8.9406768 5.40458371 -16.52734375 4.6484375 C-28.36513916 4.19905066 -34.8126315 6.87545376 -42.4921875 15.7421875 Z " fill="#FBFAFE" transform="translate(295,405)"/>
<path d="M0 0 C0.90427734 -0.020625 1.80855469 -0.04125 2.74023438 -0.0625 C9.16909761 -0.09926262 14.97589833 0.73571179 20.9375 3.25 C22.9375 5.25 22.9375 5.25 23.1875 7.75 C22.9375 10.25 22.9375 10.25 20.9375 12.25 C17.5305066 11.97524247 14.34366164 11.62887538 11.04736328 10.74072266 C3.93481501 9.08645026 -6.29569041 8.83992801 -13 12 C-15.96659309 14.17953778 -16.79825924 14.96914105 -18.0625 18.25 C-17.93120836 21.9261659 -17.75035913 24.35271841 -15.484375 27.30859375 C-12.39067594 29.78854284 -9.19078268 30.76116031 -5.4375 31.8125 C-4.36725586 32.13154297 -4.36725586 32.13154297 -3.27539062 32.45703125 C-0.21720439 33.36480056 2.85006108 34.22637094 5.9296875 35.05859375 C13.12970689 37.04364582 20.38557831 40.14210159 25.09375 46.25 C27.49853925 51.95024118 26.65508593 58.92839846 24.875 64.6875 C20.13475164 70.95686074 14.77370911 74.92182896 6.9375 76.25 C-4.13157157 77.10512141 -17.07354298 77.04447062 -26.9375 71.375 C-29.0625 69.25 -29.0625 69.25 -29.5625 66.625 C-29.0625 64.25 -29.0625 64.25 -27.0625 62.25 C-24.24053899 62.46164708 -21.70065194 63.01547608 -19.04296875 63.9921875 C-10.16000376 67.17007957 2.08293855 68.56652934 10.875 64.5 C13.85210366 62.31274017 14.61360134 61.50691502 15.9375 58.25 C16.4375 55.25 16.4375 55.25 15.9375 52.25 C12.85961335 48.30574526 9.57241516 47.15938914 4.875 45.6875 C4.21032715 45.47480469 3.5456543 45.26210938 2.86083984 45.04296875 C-1.04218444 43.81053364 -4.96653426 42.7441456 -8.9375 41.75 C-16.25604901 39.80856673 -22.90058642 36.8396965 -27.0625 30.25 C-28.95357698 24.57676906 -29.24019221 18.25716064 -27.0390625 12.63671875 C-20.77662465 2.34348527 -11.28626771 0.06248453 0 0 Z " fill="#FBFAFE" transform="translate(201.0625,400.75)"/>
<path d="M0 0 C0.95161514 -0.00540298 1.90323029 -0.01080597 2.88368225 -0.01637268 C6.02946055 -0.02888106 9.17432751 -0.0123558 12.32006836 0.00561523 C14.50434924 0.00546031 16.68863041 0.0039724 18.87290955 0.00120544 C23.4502274 -0.00017945 28.02723225 0.01239602 32.60449219 0.03515625 C38.47829735 0.06355769 44.35158297 0.0608001 50.22542667 0.04806614 C54.73522904 0.04111937 59.24491082 0.04888653 63.7546978 0.06132317 C65.92088802 0.06584622 68.08709114 0.06616704 70.25328255 0.06225777 C73.27719911 0.05935497 76.30039334 0.07580755 79.32421875 0.09765625 C80.22352112 0.0931546 81.12282349 0.08865295 82.04937744 0.08401489 C82.87230789 0.09391953 83.69523834 0.10382416 84.54310608 0.11402893 C85.25783113 0.11645883 85.97255617 0.11888872 86.70893955 0.12139225 C89.21249044 0.62557871 90.08582836 1.46490553 91.59741211 3.50170898 C92.30521188 9.07563215 92.30521188 9.07563215 91.59741211 11.50170898 C88.73471438 14.55749941 86.52402886 15.75797677 82.42321777 16.01637268 C80.74515553 16.04309689 79.06665472 16.04785428 77.38842773 16.03515625 C76.00949593 16.04807961 76.00949593 16.04807961 74.60270691 16.06126404 C71.56940413 16.08393378 68.53702438 16.07718362 65.50366211 16.06811523 C63.39286016 16.0733501 61.28206056 16.07962607 59.17126465 16.0868988 C54.74956242 16.09730469 50.32818198 16.09273828 45.90649414 16.078125 C40.24008522 16.06093094 34.5746897 16.08443967 28.90839386 16.1196146 C24.55032634 16.14157337 20.19250191 16.14015086 15.83439636 16.13184929 C13.74520251 16.13102906 11.65599095 16.13790612 9.56684875 16.15262032 C6.64606377 16.1700392 3.72710783 16.15554594 0.80639648 16.1328125 C-0.05609207 16.1445047 -0.91858063 16.1561969 -1.8072052 16.16824341 C-6.15621419 16.0993664 -7.89046773 15.89720805 -11.44299316 13.15367126 C-13.40258789 10.50170898 -13.40258789 10.50170898 -13.96508789 7.43920898 C-12.45988127 -0.42131447 -6.68147813 -0.07199141 0 0 Z " fill="#E1D9E1" transform="translate(105.402587890625,112.498291015625)"/>
<path d="M0 0 C3.0625 0.3125 3.0625 0.3125 4.70825195 1.35302734 C6.77127435 4.33803145 6.65721735 7.46074626 6.79296875 10.9765625 C6.83343323 11.7492749 6.87389771 12.5219873 6.91558838 13.31811523 C7.04311042 15.85743968 7.14810204 18.39702632 7.25 20.9375 C7.32753027 22.69189564 7.40508584 24.44629016 7.48266602 26.20068359 C7.70973604 31.57028677 7.89264243 36.94081664 8.0625 42.3125 C8.10370972 43.56546875 8.10370972 43.56546875 8.14575195 44.84375 C8.2947631 49.4940049 8.40888524 54.14281979 8.46890259 58.79510498 C8.48952045 60.21553188 8.51805828 61.63586739 8.55477905 63.05596924 C8.60216656 65.02905515 8.61248234 67.00292641 8.62109375 68.9765625 C8.63454834 70.08467285 8.64800293 71.1927832 8.66186523 72.33447266 C7.8625151 76.30615207 6.16736163 77.79946243 3.0625 80.3125 C0.0625 81 0.0625 81 -2.9375 80.3125 C-5.896823 77.69262876 -7.6216586 75.9286124 -8.38671875 72.01391602 C-8.54925566 69.07699479 -8.5218632 66.19043684 -8.4375 63.25 C-8.42122559 62.12343994 -8.40495117 60.99687988 -8.38818359 59.83618164 C-8.11582003 47.62840056 -7.33228109 35.43462783 -6.5625 23.25 C-6.49973877 22.22953583 -6.43697754 21.20907166 -6.37231445 20.15768433 C-6.18890185 17.23837692 -5.99157327 14.32038181 -5.7890625 11.40234375 C-5.70605392 10.06973511 -5.70605392 10.06973511 -5.62136841 8.71020508 C-5.02039117 0.53408417 -5.02039117 0.53408417 0 0 Z " fill="#8755E0" transform="translate(240.9375,224.6875)"/>
<path d="M0 0 C2.4375 0.8125 2.4375 0.8125 4.4375 2.8125 C4.69819641 4.95310974 4.69819641 4.95310974 4.7121582 7.63842773 C4.72645622 9.14656288 4.72645622 9.14656288 4.74104309 10.68516541 C4.74013168 11.77777176 4.73922028 12.87037811 4.73828125 13.99609375 C4.74256638 15.12136978 4.7468515 16.24664581 4.75126648 17.40602112 C4.75702154 19.79598315 4.75750144 22.1859627 4.75317383 24.57592773 C4.7500398 28.20392609 4.77336834 31.8310885 4.79882812 35.45898438 C4.80110382 37.78385314 4.80180336 40.10872409 4.80078125 42.43359375 C4.809991 43.50798203 4.81920074 44.5823703 4.82868958 45.6893158 C4.77276479 54.97115702 3.89321377 64.54361009 -2.921875 71.44140625 C-8.80373808 76.35696325 -14.7171253 76.33872414 -22.1640625 76.1640625 C-26.96569159 75.66734225 -29.65238001 74.64925372 -33.5625 71.8125 C-34.75 69.25 -34.75 69.25 -34.5625 66.8125 C-33.4375 64.9375 -33.4375 64.9375 -31.5625 63.8125 C-28.88770673 64.07345544 -26.96154859 64.6129757 -24.5625 65.8125 C-20.0154123 66.23099303 -15.88884907 66.34868367 -11.625 64.625 C-8.53543593 61.90992854 -6.76739636 59.25723077 -6.18395996 55.1434021 C-6.18190552 54.18648468 -6.17985107 53.22956726 -6.17773438 52.24365234 C-6.16762329 51.15257172 -6.15751221 50.06149109 -6.14709473 48.93734741 C-6.15011597 47.76950714 -6.15313721 46.60166687 -6.15625 45.3984375 C-6.14541382 44.19184479 -6.13457764 42.98525208 -6.12341309 41.74209595 C-6.0775096 36.58233522 -6.06603419 31.42262388 -6.05126953 26.26269531 C-6.03562324 22.49525806 -6.00263724 18.72824753 -5.96875 14.9609375 C-5.97177124 13.78904877 -5.97479248 12.61716003 -5.97790527 11.40975952 C-5.96779419 10.32498322 -5.95768311 9.24020691 -5.94726562 8.12255859 C-5.94521118 7.16723236 -5.94315674 6.21190613 -5.94104004 5.22763062 C-5.5625 2.8125 -5.5625 2.8125 -4.1986084 0.96890259 C-2.5625 -0.1875 -2.5625 -0.1875 0 0 Z " fill="#FAF8FD" transform="translate(152.5625,401.1875)"/>
<path d="M0 0 C3.38031589 1.18767855 3.93216817 1.89825225 6 5 C6.5493667 9.86581934 6.73490373 11.8976444 4 16 C0.67112371 18.21925086 -1.13936508 18.75890933 -5.0625 18.4765625 C-8.61497432 17.60276841 -10.01078114 15.9838283 -12 13 C-12.69824523 10.16123251 -12.70378755 7.83803758 -12 5 C-8.58995171 0.03992976 -5.8809843 -0.74848891 0 0 Z " fill="#8756E0" transform="translate(244,194)"/>
</svg>
